<?xml version="1.0" encoding="iso-8859-1"?>
<!-- Generator: Adobe Illustrator 19.0.0, SVG Export Plug-In . SVG Version: 6.00 Build 0)  -->
<svg version="1.1" id="Capa_1" xmlns="http://www.w3.org/2000/svg" xmlns:xlink="http://www.w3.org/1999/xlink" x="0px" y="0px"
	 viewBox="0 0 512 512" style="enable-background:new 0 0 512 512;" xml:space="preserve">
<g>
	<g>
		<path d="M421.994,136.002c-33.083,0-59.999,26.915-59.999,59.999c0,33.084,26.916,59.999,59.999,59.999
			c33.084,0,59.999-26.916,59.999-59.999C481.993,162.918,455.078,136.002,421.994,136.002z M421.994,226.001
			c-16.542,0-30-13.458-30-30c0-16.542,13.458-30,30-30s30,13.458,30,30C451.994,212.543,438.536,226.001,421.994,226.001z"/>
	</g>
</g>
<g>
	<g>
		<path d="M331.995,16.004c-33.083,0-59.999,26.916-59.999,59.999c0,33.084,26.916,59.999,59.999,59.999
			s59.999-26.916,59.999-59.999C391.995,42.919,365.079,16.004,331.995,16.004z M331.995,106.002c-16.542,0-30-13.458-30-30
			c0-16.542,13.458-30,30-30c16.542,0,30,13.458,30,30C361.995,92.545,348.537,106.002,331.995,106.002z"/>
	</g>
</g>
<g>
	<g>
		<path d="M241.997,136.002c-33.084,0-59.999,26.916-59.999,59.999c0,33.084,26.916,59.999,59.999,59.999
			c33.083,0,59.999-26.916,59.999-59.999C301.996,162.918,275.08,136.002,241.997,136.002z M241.997,226.001
			c-16.542,0-30-13.458-30-30c0-16.542,13.458-30,30-30c16.542,0,30,13.458,30,30C271.996,212.543,258.538,226.001,241.997,226.001z
			"/>
	</g>
</g>
<g>
	<g>
		<path d="M496.44,296.998c-18.563-16.099-46.121-14.118-62.378,3.334l-44.086,47.326c-5.698-18.32-22.811-31.66-42.98-31.66
			h-48.679c-6.908,0-9.96-3.783-16.954-9.939c-39.172-34.472-98.051-34.775-137.594-0.954
			c-8.155-11.546-21.592-19.107-36.769-19.107H15c-8.284,0-15,6.716-15,15v179.998c0,8.284,6.716,15,15,15h91.999
			c12.677,0,24.138-5.277,32.325-13.741c20.722,9.007,43.237,13.741,65.862,13.741h141.81c32.874,0,64.274-15.701,83.999-41.999
			l72.013-96.017c0-0.001,0.001-0.001,0.001-0.002C517.162,339.107,514.335,312.517,496.44,296.998z M121.998,450.998
			c0,8.271-6.729,15-15,15H30V316h76.999c8.271,0,15,6.729,15,15V450.998z M479.007,339.982l-0.001,0.001l-72.012,96.015
			c-14.089,18.785-36.519,30-59.999,30h-141.81c-18.325,0-36.563-3.792-53.374-11.017c0.116-1.314,0.186-2.64,0.186-3.983V337.78
			l10.453-9.198c28.247-24.858,70.847-24.856,99.093,0c7.527,6.624,17.626,17.418,36.773,17.418h48.68c8.271,0,15,6.729,15,15
			s-6.729,15-15,15H270.39c-17.155,0-32.578,9.532-40.249,24.875c-3.705,7.41-0.701,16.42,6.708,20.125
			c2.154,1.077,4.442,1.587,6.696,1.587c5.502,0,10.8-3.039,13.428-8.295c2.557-5.114,7.698-8.292,13.417-8.292h86.659
			c12.443,0,24.445-5.222,32.927-14.327l66.035-70.889c0.001-0.001,0.002-0.002,0.003-0.003c5.731-6.153,15.184-6.326,21.168-0.78
			C482.844,325.25,483.586,333.878,479.007,339.982z"/>
	</g>
</g>
<g>
	<g>
		<circle cx="75.999" cy="360.995" r="15"/>
	</g>
</g>
<g>
</g>
<g>
</g>
<g>
</g>
<g>
</g>
<g>
</g>
<g>
</g>
<g>
</g>
<g>
</g>
<g>
</g>
<g>
</g>
<g>
</g>
<g>
</g>
<g>
</g>
<g>
</g>
<g>
</g>
</svg>
