<?xml version="1.0" encoding="UTF-8" standalone="no"?>
<svg
   xmlns:dc="http://purl.org/dc/elements/1.1/"
   xmlns:cc="http://creativecommons.org/ns#"
   xmlns:rdf="http://www.w3.org/1999/02/22-rdf-syntax-ns#"
   xmlns:svg="http://www.w3.org/2000/svg"
   xmlns="http://www.w3.org/2000/svg"
   id="svg12"
   preserveAspectRatio="xMidYMid meet"
   viewBox="0 0 100.000000 100.000000"
   height="100.000000pt"
   width="100.000000pt"
   version="1.0">
  <metadata
     id="metadata18">
    <rdf:RDF>
      <cc:Work
         rdf:about="">
        <dc:format>image/svg+xml</dc:format>
        <dc:type
           rdf:resource="http://purl.org/dc/dcmitype/StillImage" />
      </cc:Work>
    </rdf:RDF>
  </metadata>
  <defs
     id="defs16" />
  <g
     id="g10"
     stroke="none"
     fill="#F2F5F5"
     transform="translate(0.000000,100.000000) scale(0.100000,-0.100000)">
    <path
       id="path2"
       d="M350 920 c-27 -27 -25 -66 5 -95 30 -30 54 -31 89 -4 50 40 21 119 -44 119 -17 0 -39 -9 -50 -20z" />
    <path
       id="path4"
       d="M485 840 l-18 -61 51 -52 c28 -29 61 -74 73 -102 27 -61 35 -164 17 -224 l-13 -43 0 88 c0 81 -3 94 -31 144 -29 52 -107 120 -139 120 -6 0 -17 -19 -24 -41 -13 -43 -6 -58 27 -59 7 0 35 -22 62 -49 60 -60 86 -134 71 -200 -13 -60 -21 -62 -21 -7 0 49 -18 96 -53 134 -25 27 -39 28 -60 4 -16 -18 -15 -19 10 -33 14 -8 39 -34 55 -58 32 -52 38 -122 12 -159 -30 -43 4 -21 65 42 38 41 74 90 94 133 30 64 32 75 32 178 0 93 -4 118 -23 160 -27 58 -43 78 -96 116 -58 43 -70 39 -91 -31z" />
    <path
       id="path6"
       d="M292 734 c-43 -30 -21 -94 33 -94 36 0 55 20 55 59 0 19 -34 51 -55 51 -6 0 -21 -7 -33 -16z" />
    <path
       id="path8"
       d="M307 521 c-49 -51 -69 -95 -75 -167 -7 -87 18 -155 77 -214 169 -168 450 -51 451 188 0 64 -20 132 -39 132 -6 0 -11 -1 -11 -2 -1 -2 -4 -47 -9 -100 -6 -81 -12 -104 -35 -138 -30 -46 -109 -90 -162 -90 -79 0 -155 49 -190 124 -42 90 -26 165 49 239 27 26 47 47 45 47 -2 0 -17 4 -35 9 -28 8 -34 6 -66 -28z" />
  </g>
</svg>
